# xmcd
#
# Track frame offsets:
#	150
#	16247
#	28092
#	43625
#	62482
#	79617
#	99935
#	115545
#	133360
#	149247
#	166997
#	183095
#	194937
#	210470
#	229327
#	246462
#	266777
#	282390
#	300205
#	316090
#
# Disc length: 4451 seconds
#
# Revision: 1
# Processed by: cddbd v1.5.1PL0 Copyright (c) Steve Scherf et al.
# Submitted via: audiograbber 1.82.02
#
DISCID=1f116114
DTITLE=Various Artist - Top Hits Monthl;y 9908 Country
DYEAR=1900
DGENRE=Karaoke
TTITLE0=Jo Dee Messina W - Vocals - Lesson in leavin' W - Vocals
TTITLE1=Dwight Yoakam W - Vocals - Crazy little thing called love W - Vocals
TTITLE2=Mark Chesnutt W - Vocals - This heartache never sleeps W - Vocals
TTITLE3=Faith Hill W - Vocals - The secret of life W - Vocals
TTITLE4=Brooks and Dunn W - Vocals - South of Santa Fe W - Vocals
TTITLE5=Trisha Yearwood W - Vocals - I'll still love you more W - Vocals
TTITLE6=George Jones W - Vocals - Choices W - Vocals
TTITLE7=Chalee Tennison W - Vocals - Someone else's turn to cry W - Vocals
TTITLE8=Chad Brock W - Vocals - Lighting does the work W - Vocals
TTITLE9=Unknown W - Vocals - Senorita Margarrita W - Vocals
TTITLE10=Jo Dee Messina - Lesson in leavin'
TTITLE11=Dwight Yoakam - Crazy little thing called love
TTITLE12=Mark Chesnutt - This heartache never sleeps
TTITLE13=Faith Hill - The secret of life
TTITLE14=Brooks and Dunn - South of Santa Fe
TTITLE15=Trisha Yearwood - I'll still love you more
TTITLE16=George Jones - Choices
TTITLE17=Chalee Tennison - Someone else's turn to cry
TTITLE18=Chad Brock - Lighting does the work
TTITLE19=Unknown - Senorita Margarrita
EXTD=
EXTT0=
EXTT1=
EXTT2=
EXTT3=
EXTT4=
EXTT5=
EXTT6=
EXTT7=
EXTT8=
EXTT9=
EXTT10=
EXTT11=
EXTT12=
EXTT13=
EXTT14=
EXTT15=
EXTT16=
EXTT17=
EXTT18=
EXTT19=
PLAYORDER=
